# xmcd
#
# Track frame offsets:
#	150
#	18945
#	42059
#	65996
#	86596
#	112371
#	130848
#
# Disc length: 2324 seconds
#
# Revision: 0
# Processed by: cddbd v1.5.1PL0 Copyright (c) Steve Scherf et al.
# Submitted via: audiograbber 1.83.01
#
DISCID=5f091207
DTITLE=Muddy Waters - Live
DYEAR=1979
DGENRE=Blues
TTITLE0=Mannish Boy
TTITLE1=She´s nineteen Years old
TTITLE2=Nine Below Zero
TTITLE3=Streamline Woman
TTITLE4=Howling Wolf
TTITLE5=Baby please don´t go
TTITLE6=Deep down in Florida
EXTD=
EXTT0=
EXTT1=
EXTT2=
EXTT3=
EXTT4=
EXTT5=
EXTT6=
PLAYORDER=
